<svg width="31" height="50" fill="none" xmlns="http://www.w3.org/2000/svg"><path fill-rule="evenodd" clip-rule="evenodd" d="M15.3113 15.508c.6934.931 1.9314 1.6137 3.9833 1.3389 3.6029-.4825 6.3909.5987 8.0636 2.6698 1.6316 2.0201 2.0061 4.7475 1.3036 7.1935-.7099 2.4717-2.5354 4.7372-5.4036 5.8728-2.864 1.134-6.5911 1.0769-11.0422-.7113-3.8666-1.5534-6.0902-1.3016-7.2868-.6014-1.1675.6831-1.8513 2.0909-1.9231 4.0825-.0712 1.973.489 4.2205 1.452 6.0371.9967 1.8804 2.2182 2.9347 3.2375 3.1395l-.5908 2.9412c-2.34-.47-4.1466-2.5048-5.2974-4.6756C.6228 40.5604-.084 37.7947.008 35.2447c.0913-2.5315 1.0008-5.1565 3.4062-6.5638 2.3762-1.3903 5.705-1.2864 9.9201.407 3.9471 1.5857 6.8547 1.4837 8.8196.7058 1.9608-.7764 3.1586-2.2896 3.6245-3.9117.4732-1.6477.1759-3.3289-.754-4.4803-.8887-1.1004-2.5518-1.9536-5.3316-1.5814-2.987.4-5.3603-.6043-6.7874-2.5201-1.3762-1.8475-1.7117-4.3261-1.1712-6.6454.5458-2.3426 2.0042-4.6384 4.3874-6.1973 2.3948-1.5665 5.6262-2.328 9.6224-1.7808l-.4071 2.9723c-3.3943-.4649-5.8737.2075-7.573 1.319-1.711 1.1193-2.7301 2.7458-3.108 4.3676-.3834 1.6451-.089 3.1731.6554 4.1724z" fill="#000"/><path fill-rule="evenodd" clip-rule="evenodd" d="M25.5133 4.361c-.46-.063-.9066-.1068-1.3397-.1326l.0238-.3993c.4436.0264.9004.0713 1.3702.1356l-.0543.3963zm-4.0263-.0527c-.9476.1211-1.8108.34-2.591.6368l-.1422-.3739c.8109-.3085 1.7049-.5347 2.6825-.6597l.0507.3968zm-4.9219 1.9139c-.74.557-1.3562 1.2014-1.8507 1.8965l-.3259-.2319c.5179-.728 1.1626-1.402 1.936-1.9842l.2406.3196zm-3.0268 4.2698c-.2709.8769-.3834 1.7681-.3417 2.6178l-.3995.0196c-.0441-.8981.075-1.8358.359-2.7554l.3822.118zm.3234 5.1473c.4089.7721 1.0015 1.4199 1.7734 1.8715l-.202.3452c-.841-.492-1.4839-1.1968-1.9249-2.0295l.3535-.1872zm5.6054 2.4961c.5482-.0734 1.0695-.1065 1.5639-.1027l-.0031.4c-.4744-.0037-.9769.028-1.5077.0991-.4923.066-.9596.088-1.4013.0698l.0165-.3996c.4168.0171.8608-.0036 1.3317-.0666zm4.6216.4976c1.0396.4504 1.855 1.1285 2.4459 1.9461l-.3242.2343c-.549-.7596-1.3075-1.3917-2.2807-1.8133l.159-.3671zm3.5624 4.867c.1221 1.0216.0152 2.0879-.3171 3.1067l-.3803-.124c.3148-.9652.4152-1.973.3002-2.9352l.3972-.0475zM8.6936 29.5255c-1.0511-.1495-1.9616-.1343-2.7445.0129l-.0739-.3932c.8332-.1566 1.7885-.1702 2.8747-.0157l-.0563.396zm17.0801-.2146c-.6654.7417-1.5013 1.3795-2.505 1.8519l-.1703-.362c.955-.4494 1.7476-1.0548 2.3775-1.757l.2978.2671zm-13.0731 1.3545a22.8446 22.8446 0 0 0-1.3155-.4839l.126-.3796c.4305.1429.8765.3067 1.3386.4923.4884.1962.9645.369 1.4282.5196l-.1236.3805a22.875 22.875 0 0 1-1.4537-.5289zm-9.1612.0172c-.663.5946-1.1326 1.3719-1.4316 2.2674l-.3794-.1267c.3169-.9488.8204-1.7895 1.544-2.4385l.267.2978zm16.7291 1.2966c-.9488.1008-1.985.0836-3.1075-.0748l.0559-.396c1.0927.1541 2.0959.1701 3.0094.073l.0422.3978zM1.7 35.6573c-.0028.8977.1044 1.83.3052 2.7508l-.3908.0853c-.2063-.9462-.3173-1.9076-.3144-2.8373l.4.0012zm1.1538 5.3913c.3814.8823.8437 1.6994 1.3664 2.4009l-.3207.239c-.5436-.7295-1.0208-1.5742-1.4129-2.4811l.3672-.1588zm3.3455 4.2658c.4024.238.8175.4046 1.2403.4895l-.0788.3922c-.4726-.0949-.9295-.2798-1.3651-.5373l.2036-.3444z" fill="#fff"/><path d="M11.5 46.5c0 1.933-1.567 3.5-3.5 3.5s-3.5-1.567-3.5-3.5S6.067 43 8 43s3.5 1.567 3.5 3.5z" fill="#C4C4C4"/><path d="M9.5 46.5c0 .8284-.6716 1.5-1.5 1.5s-1.5-.6716-1.5-1.5S7.1716 45 8 45s1.5.6716 1.5 1.5z" fill="#fff"/><path d="M30.5 3.5C30.5 5.433 28.933 7 27 7s-3.5-1.567-3.5-3.5S25.067 0 27 0s3.5 1.567 3.5 3.5z" fill="#C4C4C4"/><path d="M28.5 3.5c0 .8284-.6716 1.5-1.5 1.5s-1.5-.6716-1.5-1.5S26.1716 2 27 2s1.5.6716 1.5 1.5z" fill="#fff"/></svg>