<svg width="62" height="74" fill="none" xmlns="http://www.w3.org/2000/svg"><path d="M61.9204 19.0536c-.0379-1.9979-.074-3.8853-.074-5.7112 0-1.4305-1.156-2.5902-2.5827-2.5902-11.0453 0-19.4548-3.1835-26.4646-10.0188-1.0028-.978-2.5985-.9777-3.6009 0-7.0091 6.8353-15.4173 10.0188-26.4619 10.0188-1.4263 0-2.5827 1.1597-2.5827 2.5902 0 1.8263-.0358 3.7143-.074 5.7126-.354 18.5927-.8388 44.0562 30.0731 54.802a2.5747 2.5747 0 0 0 1.6915 0c30.9144-10.7461 30.4302-36.2104 30.0762-54.8034zM30.9988 68.6611C4.4878 59.0025 4.8886 37.8442 5.2443 19.1538c.0213-1.1218.042-2.209.0565-3.2747 10.3445-.4379 18.6166-3.5817 25.698-9.7685 7.0821 6.1868 15.3556 9.3309 25.7008 9.7685.0145 1.0654.0351 2.1519.0565 3.2729.3554 18.6911.7558 39.8502-25.7573 49.5091z" fill="#fff"/><path d="M39.8925 28.0021l-12.4654 12.501-5.3193-5.3348c-1.0086-1.0112-2.6439-1.0112-3.6522 0-1.0086 1.0119-1.0086 2.6517 0 3.6632l7.1454 7.1662a2.571 2.571 0 0 0 1.8261.7584 2.571 2.571 0 0 0 1.8262-.7584l14.2912-14.3323c1.0089-1.0116 1.0089-2.6517.0003-3.6629-1.0083-1.0116-2.6436-1.0119-3.6523-.0004z" fill="#fff"/></svg>