<svg width="46" height="35" fill="none" xmlns="http://www.w3.org/2000/svg"><path d="M33.5254 22.1048c0 5.7828-4.7124 10.4706-10.5254 10.4706s-10.5254-4.6878-10.5254-10.4706c0-5.7828 4.7124-10.4707 10.5254-10.4707s10.5254 4.6879 10.5254 10.4707z" fill="#C4C4C4"/><path d="M20.6744 23.465c-.6526-1.4046-.0473-3.068 1.3451-3.7082 1.3894-.6389 3.0473-.016 3.6999 1.3886l13.761 7.672-15.2574-3.8941c-1.3578.5231-2.9201-.1054-3.5486-1.4583z" fill="#030104"/><path d="M6.7366 6.7314C11.0808 2.3906 16.8565 0 23 0c6.1435 0 11.9194 2.3906 16.2636 6.7314C43.6077 11.0723 46 16.8437 46 22.9826c0 3.9637-.9994 7.7731-2.8757 11.144h-4.2988l-3.1442-1.814 1.3886-2.4034 4.0429 2.3326c1.4283-2.7788 2.2352-5.9265 2.2352-9.2592 0-.5898-.0268-1.1735-.0763-1.7508l-4.8206.8493-.4822-2.7329 4.8773-.8593c-.8715-3.8451-2.8366-7.28-5.5502-9.9601l-3.3045 3.9354-2.1275-1.7838 3.3296-3.965c-3.0532-2.291-6.7698-3.744-10.8051-4.0168v5.2632h-2.777V2.6985c-4.0353.2732-7.7519 1.726-10.8052 4.017l3.3297 3.9649-2.1274 1.7838L8.704 8.5287c-2.7135 2.6802-4.6786 6.1151-5.5501 9.9601l4.8772.8595-.4823 2.7327-4.8203-.8494a20.5083 20.5083 0 0 0-.0763 1.7507c0 3.333.8066 6.4808 2.2351 9.2594l4.043-2.3324 1.3885 2.4033-3.144 1.8138h-4.299C.9992 30.7555 0 26.9461 0 22.9823c-.0001-6.1387 2.3925-11.9102 6.7366-16.2509z" fill="#030104"/></svg>